<?xml version="1.0" encoding="utf-8"?>
<!-- Generator: Adobe Illustrator 16.0.4, SVG Export Plug-In . SVG Version: 6.00 Build 0)  -->
<!DOCTYPE svg PUBLIC "-//W3C//DTD SVG 1.1//EN" "http://www.w3.org/Graphics/SVG/1.1/DTD/svg11.dtd">
<svg version="1.1" id="Layer_1" xmlns="http://www.w3.org/2000/svg" xmlns:xlink="http://www.w3.org/1999/xlink" x="0px" y="0px"
	 width="26.508px" height="21.456px" viewBox="0 0 26.508 21.456" enable-background="new 0 0 26.508 21.456" xml:space="preserve">
<g>
	<path fill-rule="evenodd" clip-rule="evenodd" fill="#FFFFFF" d="M26.244,7.691c-0.353-0.358-0.728-0.698-1.062-1.074
		c-0.174-0.195-0.322-0.435-0.41-0.68c-0.098-0.27-0.131-0.566-0.16-0.855c-0.038-0.365-0.18-0.554-0.537-0.649
		c-1.057-0.281-2.117-0.549-3.167-0.853c-1.147-0.331-2.31-0.639-3.357-1.233c-1.274-0.722-2.532-1.472-3.794-2.218
		c-0.278-0.165-0.565-0.17-0.821-0.024c-1.095,0.626-2.17,1.287-3.268,1.908C9.123,2.32,8.563,2.613,7.98,2.835
		c-1.761,0.668-3.591,1.11-5.42,1.547C2.085,4.495,1.936,4.655,1.896,5.137C1.842,5.8,1.645,6.385,1.106,6.829
		C0.805,7.08,0.545,7.382,0.267,7.66c-0.354,0.354-0.356,0.667-0.003,1.024C0.9,9.328,1.539,9.969,2.176,10.611
		c0.618,0.621,1.225,1.253,1.857,1.858c0.286,0.273,0.42,0.538,0.408,0.965c-0.041,1.419-0.018,2.841,0,4.261
		c0.002,0.158,0.087,0.344,0.194,0.466c0.48,0.546,1.052,0.988,1.662,1.38c2.115,1.36,4.46,1.893,6.904,1.915
		c1.242-0.01,2.431-0.13,3.594-0.437c1.837-0.483,3.49-1.307,4.864-2.645c0.279-0.272,0.544-0.547,0.37-0.988
		c-0.005-0.012,0.001-0.028,0.002-0.043c0.017-0.363,0.045-0.727,0.048-1.09c0.006-0.986,0.02-1.973-0.009-2.957
		c-0.009-0.288,0.082-0.464,0.274-0.654c1.303-1.289,2.596-2.588,3.891-3.884C26.596,8.396,26.6,8.055,26.244,7.691z M19.538,18.503
		c-1.116,0.778-2.367,1.227-3.693,1.458c-2.209,0.386-4.403,0.323-6.559-0.343c-0.903-0.28-1.749-0.682-2.546-1.309
		c4.373,0,8.683,0,13.051,0C19.68,18.394,19.61,18.451,19.538,18.503z M20.813,17.024c-5.045,0-10.078,0-15.121,0
		c0-1.257,0-2.502,0-3.762c5.044,0,10.077,0,15.121,0C20.813,14.523,20.813,15.769,20.813,17.024z M23.577,9.595
		c-0.762,0.766-1.527,1.527-2.299,2.282c-0.071,0.069-0.197,0.092-0.301,0.115c-0.076,0.017-0.159-0.001-0.24-0.001
		c-4.957,0-9.913-0.007-14.87,0.013c-0.396,0.001-0.65-0.11-0.918-0.385C3.881,10.53,2.79,9.464,1.706,8.391
		C1.649,8.335,1.577,8.294,1.488,8.23c0.256-0.254,0.466-0.474,0.689-0.682c0.519-0.482,0.8-1.086,0.91-1.774
		c0.025-0.155,0.076-0.229,0.242-0.275c1.653-0.466,3.329-0.876,4.947-1.448c1.048-0.371,2.017-0.972,3.007-1.497
		c0.611-0.324,1.198-0.695,1.788-1.058c0.14-0.086,0.23-0.073,0.368,0.005c1.363,0.772,2.708,1.581,4.106,2.285
		c1.2,0.604,2.524,0.893,3.817,1.245c0.612,0.167,1.227,0.325,1.842,0.477c0.125,0.03,0.186,0.082,0.203,0.209
		c0.107,0.765,0.438,1.413,1.019,1.931c0.19,0.169,0.364,0.355,0.539,0.527C24.485,8.666,24.036,9.135,23.577,9.595z"/>
	<path fill-rule="evenodd" clip-rule="evenodd" fill="#FFFFFF" d="M13.258,4.419c-1.709-0.011-3.153,1.414-3.16,3.115
		c-0.007,1.759,1.399,3.185,3.148,3.193c1.721,0.009,3.147-1.406,3.161-3.138S15,4.43,13.258,4.419z M13.261,9.464
		c-1.046,0.002-1.897-0.845-1.898-1.889c-0.001-1.043,0.843-1.887,1.893-1.893c1.025-0.006,1.881,0.847,1.888,1.877
		C15.148,8.603,14.298,9.463,13.261,9.464z"/>
</g>
</svg>
